<svg clip-rule="evenodd" fill-rule="evenodd" height="30.6478mm" image-rendering="optimizeQuality" shape-rendering="geometricPrecision" text-rendering="geometricPrecision" viewBox="0 0 225.3 218.03" width="31.6698mm" xmlns="http://www.w3.org/2000/svg"><path d="m72.77 109.02 28.97.04-.17 36.28-28.88-.04zm-43.52 0 28.88.04.19 36.28-29.24-.04zm0-50.88 28.88.04.01 36.28-29.06-.04zm-22.16 110.68c2.76.1 7.83 1.77 10.73 2.37 2.22.46 9.13 1.94 11.12 1.72l.15-12.99 25.51-.05h7.09l25.48.02.11 9.43c4.87.07 23.04-7.85 27.18-9.83 6.08-2.91 11.81-6.3 17.46-10.12 1.33-.9 4.26-2.66 5.22-4.02l-20.85-.06.08-36.28 28.97.04.02 29.62c1.84-.73 6.4-5.57 7.76-6.99 1.28-1.34 2.19-2.44 3.52-3.76 1.25-1.25 1.79-2.48 3.29-3.63l-.09-.33.1-14.92 10.86-.07c2.17-3.07 6.47-11.06 7.58-14.39l-18.47-.15.04-36.28 28.34-.03c.56-3.66.88-10.57.59-14.49l-49.02.04c-1.32 2.98-2.16 5.14-4.22 8-2.05 2.84-3.83 4.09-5.85 6.46l15.56.05-.04 36.28-29.01-.04v-29.85c-5.15 1.14-9.31 1.04-14.55 0l-.08 29.89-28.97-.04.04-36.28 15.52-.03c-2.01-2.35-3.83-3.62-5.85-6.45-2.08-2.9-2.92-5.01-4.23-8l-71.13-.08c.68 2.75.25 12.51.25 16 0 11.26.43 105.68-.2 109.24z" fill="#eaebef"/><path d="m188.28 58.12c.79.29.43-.06.68.74v35.58l-10.28.1-.3.03c-1.11 3.33-5.4 11.32-7.58 14.39l18.13.05.04 36.3-29.03.04v-21.06c-1.49 1.15-2.04 2.38-3.29 3.63-1.32 1.32-2.24 2.43-3.52 3.76-1.36 1.43-5.92 6.27-7.76 6.99l-.01 6.64-8.21.05c-.95 1.36-3.89 3.12-5.22 4.02-5.65 3.82-11.38 7.21-17.46 10.12-4.14 1.98-22.31 9.9-27.18 9.83l-.02.36.04 19.25h43.43l.1-29.02 25.64-.04h6.84l25.61.01.13 29.05 21.75.08.14-145.43-22.07.04c.28 3.92-.03 10.83-.59 14.49z" fill="#cdd3da"/><path d="m210.77 203.42-21.71.09h-25.63-7.07-25.64-43.41-25.63-7.07-25.64l-21.71-.09-7.26.11v14.47l39.97.03h185.33l-7.27-.03-.03-14.49z" fill="#9ba0a7"/><path d="m101.78 14.53 14.49.03.05 10.86 10.86.05-.03 14.49-10.86.05-.05 10.86-14.49-.03-.05-10.86-10.86-.05.03-14.49 10.86-.05zm-23.62 7.2c-2.58 8.61-2.4 13.37 0 21.94 1.31 2.99 2.15 5.1 4.23 8 2.02 2.83 3.84 4.1 5.85 6.45 1.73.8 3.73 2.61 6.09 3.8 2.25 1.13 4.83 2.09 7.41 2.65 5.24 1.04 9.41 1.14 14.55 0 2.53-.56 5.02-1.48 7.16-2.53 2.42-1.19 4.57-3.03 6.34-3.91 2.02-2.37 3.81-3.61 5.85-6.46 2.06-2.86 2.9-5.02 4.22-8 2.52-9 2.5-12.97 0-21.94-5.72-13.33-16.01-21.73-30.84-21.73-14.76 0-25.16 8.38-30.85 21.73z" fill="#ed5c58"/><path d="m7.04 43.6 71.13.08c-2.4-8.57-2.58-13.33 0-21.94l-78.17.1.03 21.76h7z" fill="#acb3bc"/><path d="m130.73 188.94-.01 14.56h25.64c-.61-6.31-.1-15.23-.1-21.81 0-4.88-.61-17.86.21-21.81l-25.64.04z" fill="#758190"/><path d="m163.43 203.51h25.64l-.01-14.56-.13-29.05-25.61-.01c.82 3.95.21 16.93.21 21.81 0 6.59.51 15.51-.1 21.81z" fill="#758190"/><g fill="#b2e0f4"><path d="m29.08 145.31 29.24.03-.19-36.28-28.88-.04z"/><path d="m137.14 145.37 8.21-.05.02-6.64-.03-29.62-28.97-.04-.08 36.29z"/><path d="m29.08 94.43 29.06.04-.01-36.28-28.88-.04z"/><path d="m72.69 145.31 28.88.03.17-36.28-28.97-.04z"/></g><path d="m139.86 43.68 49.02-.04c.09-3.27-.21-8.23-.66-11.28-.35-2.44-1.53-8.49-1.42-10.6l-46.94-.02c2.5 8.97 2.51 12.94 0 21.94z" fill="#acb3bc"/><path d="m116.29 64.58v29.85l29.01.04.04-36.28-15.56-.05c-1.77.88-3.92 2.73-6.34 3.91-2.14 1.05-4.63 1.97-7.16 2.53z" fill="#b2e0f4"/><path d="m101.74 64.58c-2.58-.57-5.16-1.52-7.41-2.65-2.36-1.19-4.35-3-6.09-3.8l-15.52.03-.04 36.28 28.97.04.08-29.89z" fill="#b2e0f4"/><path d="m159.84 123.96.09.33v21.06l29.03-.04-.04-36.3-18.13-.05c-1.74 2.77-3.56 5.62-5.24 7.88-1.86 2.51-3.77 5.44-5.72 7.12z" fill="#7fcdee"/><path d="m178.37 94.58.3-.03c.37-2.11 2.21-5.88 3.12-8.34.99-2.69 2.02-5.84 2.8-8.74 1.8-6.7 2.43-12.5 3.69-19.35l-28.34.03-.04 36.28z" fill="#b2e0f4"/><path d="m101.74 25.4-10.86.04-.03 14.49 10.86.05.05 10.85 14.49.04.04-10.87 10.86-.04.03-14.49-10.86-.05-.05-10.85-14.49-.04z" fill="#fff"/><g fill="#758190"><path d="m61.65 173.73.02 29.78h25.64l-.01-14.56-.04-19.25c-3.39.22-8.62 1.9-12.41 2.49-4.01.62-9.08 1.69-13.2 1.54z"/><path d="m28.98 188.94-.01 14.56h25.64l-.11-29.23c-4.22.39-8.94.12-13.07-.11-3.94-.21-9.14-1.01-12.5-.94l.04 15.72z"/><path d="m188.87 43.64 22.07-.04 7.09-.03-.04-21.76-31.2-.05c-.11 2.12 1.06 8.16 1.42 10.6.44 3.06.75 8.01.66 11.28z"/></g><path d="m87.31 203.51h43.41l.01-14.57h-43.43z" fill="#58616c"/><path d="m7.23 189.03 21.75-.08-.04-15.72v-.3c-1.99.22-8.89-1.26-11.12-1.72-2.9-.6-7.97-2.27-10.73-2.37l.14 20.2z" fill="#cdd3da"/><path d="m28.94 172.92v.3c3.35-.07 8.56.73 12.5.94 4.13.22 8.84.5 13.07.11l.1-14.39-25.51.05-.15 12.99z" fill="#acb3bc"/><g fill="#58616c"><path d="m156.36 203.51h7.07c.61-6.31.1-15.23.1-21.81 0-4.88.61-17.86-.21-21.81h-6.84c-.82 3.95-.21 16.93-.21 21.81 0 6.59-.51 15.51.1 21.81z"/><path d="m189.06 203.51 21.71-.09.03-14.39-21.75-.09z"/><path d="m7.26 203.42 21.71.09.01-14.57-21.75.09z"/></g><path d="m61.65 173.73c4.11.15 9.19-.92 13.2-1.54 3.79-.59 9.02-2.27 12.41-2.49l.02-.36-.11-9.43-25.48-.02-.03 13.85z" fill="#acb3bc"/><path d="m54.5 174.27.11 29.24h7.07l-.03-29.78.03-13.85h-7.08z" fill="#58616c"/><path d="m178.68 94.55 10.28-.1v-35.58c-.25-.8.11-.46-.68-.74-1.26 6.85-1.89 12.65-3.69 19.35-.78 2.89-1.8 6.05-2.8 8.74-.91 2.46-2.75 6.23-3.12 8.34z" fill="#7fcdee"/><path d="m159.84 123.96c1.95-1.67 3.86-4.61 5.72-7.12 1.68-2.26 3.5-5.11 5.24-7.88l-10.86.07-.1 14.92z" fill="#b2e0f4"/></svg>