<svg clip-rule="evenodd" fill-rule="evenodd" height="29.8843mm" image-rendering="optimizeQuality" shape-rendering="geometricPrecision" text-rendering="geometricPrecision" viewBox="0 0 170.67 150.99" width="33.7794mm" xmlns="http://www.w3.org/2000/svg"><path d="m85.33 15.33-67.92 67.73v13.63 40.49 13.81h7.57 60.35 60.36 7.57v-13.81-40.49-13.63z" fill="#eeeeef"/><path d="m85.33 19.68-67.92 66.98v14.38.75l67.92-67.73 67.93 67.73v-.75-14.38z" fill="#c9caca"/><path d="m85.33 0-85.33 85.14 10.6 10.6 74.73-74.55 74.74 74.55 10.6-10.6z" fill="#e74c3c"/><path d="m100.28 68.12c0 8.32-6.62 14.95-14.95 14.95-8.32 0-14.95-6.62-14.95-14.95s6.62-15.14 14.95-15.14c8.32 0 14.95 6.81 14.95 15.14z" fill="#3498db"/><path d="m70.39 105.58h29.89v45.41h-29.89z" fill="#e67e22"/><path d="m96.5 132.07c0 2.08-1.7 3.79-3.79 3.79-2.08 0-3.78-1.7-3.78-3.79 0-2.08 1.7-3.78 3.78-3.78s3.79 1.7 3.79 3.78z" fill="#d35400"/><path d="m85.33 52.98c-8.32 0-14.95 6.81-14.95 15.14 0 .76.19 2.27.38 3.78 1.7-6.81 7.57-11.35 14.57-11.35s12.87 4.54 14.57 11.35c.19-1.51.38-3.03.38-3.78 0-8.33-6.62-15.14-14.95-15.14z" fill="#2980b9"/><path d="m96.5 128.28c0 2.08-1.7 3.78-3.79 3.78-2.08 0-3.78-1.7-3.78-3.78s1.7-3.79 3.78-3.79 3.79 1.7 3.79 3.79z" fill="#f1c40f"/><path d="m70.39 98.01h29.89v7.57h-29.89z" fill="#d35400"/></svg>