<svg clip-rule="evenodd" fill-rule="evenodd" height="36.4376mm" image-rendering="optimizeQuality" shape-rendering="geometricPrecision" text-rendering="geometricPrecision" viewBox="0 0 242.43 242.43" width="36.4373mm" xmlns="http://www.w3.org/2000/svg"><path d="m56.56 16.16h64.66v210.12h-64.66z" fill="#fefefe"/><path d="m161.62 161.62h16.16v40.41h-16.16zm0-64.65h16.16v48.49h-16.16zm-32.32 0h16.16v48.49h-16.16zm-8.08-64.63 8.08-.02v16.16h16.16v16.16h-16.16v16.16l-8.08-.02v80.83h32.32v8.08h-8.08v56.57h40.41v-145.47-16.15l.17-48.49h-64.81l-.01 16.18z" fill="#ebedef"/><path d="m193.94 161.62h16.16v40.41h-16.16zm0-64.65h16.16v48.49h-16.16zm-8.08 129.3h40.41l.17-145.47h-40.57v145.47z" fill="#cdd7db"/><path d="m32.07 161.62h16.42l.5 40.41h-16.67zm0-64.65h16.42v48.49h-16.16l-.25-48.49zm-15.91 129.3h40.41v-145.47h-40.54z" fill="#ebedef"/><path d="m0 242.43h121.23v-16.16h-24.26l-40.4.01h-40.41l-16.16-.01z" fill="#8fa2ad"/><path d="m121.23 242.43h121.2v-16.16h-16.16-40.41-40.4-24.23z" fill="#788f9b"/><path d="m96.97 226.27h24.26v-56.57h-24.26z" fill="#0287cf"/><path d="m121.23 226.27h24.23v-56.57h-24.23z" fill="#0275bb"/><path d="m121.21 80.79 8.09.02v-16.16h16.16v-16.16h-16.16v-16.17l-8.09.02-8.04.02v16.16h-16.14l-.03 16.1h16.01l.16 16.16z" fill="#d74214"/><path d="m121.22 16.16.01-16.16-72.51.02 7.75 16.06z" fill="#afbdc3"/><path d="m121.22 16.16h64.81l7.91-15.92-72.71-.24z" fill="#8fa2ad"/><path d="m32.32 145.46h16.16v-48.49h-16.41z" fill="#28b5f4"/><path d="m96.97 145.46h16.16v-48.49h-16.22z" fill="#28b5f4"/><g fill="#0299e3"><path d="m129.3 145.46h16.16v-48.49h-16.16z"/><path d="m161.62 145.46h16.16v-48.49h-16.16z"/><path d="m193.94 145.46h16.17v-48.49h-16.17z"/></g><path d="m64.65 145.46h16.16v-48.49h-16.16z" fill="#28b5f4"/><path d="m16.03 80.81h40.54v-16.16l-48.25.03z" fill="#afbdc3"/><path d="m185.87 80.8h40.57l7.91-15.91-48.48-.24z" fill="#8fa2ad"/><path d="m32.32 202.03h16.67l-.51-40.41h-16.41z" fill="#28b5f4"/><path d="m161.62 202.03h16.16v-40.41h-16.16z" fill="#0299e3"/><path d="m193.94 202.03h16.17v-40.41h-16.17z" fill="#0299e3"/><path d="m64.65 202.03h16.03l.13-40.41h-16.16z" fill="#28b5f4"/><path d="m96.97 169.7h24.26l-.01-8.08h-32.33v8.08z" fill="#788f9b"/><path d="m121.23 169.7h24.23 8.08v-8.08h-32.32z" fill="#546d7a"/></svg>