<svg clip-rule="evenodd" fill-rule="evenodd" height="39.4253mm" image-rendering="optimizeQuality" shape-rendering="geometricPrecision" text-rendering="geometricPrecision" viewBox="0 0 449.28 449.3" width="39.4242mm" xmlns="http://www.w3.org/2000/svg"><g fill-rule="nonzero"><path d="m449.28 224.65c0 124.06-100.57 224.65-224.65 224.65-124.07 0-224.64-100.59-224.64-224.65 0-124.07 100.57-224.65 224.64-224.65s224.65 100.58 224.65 224.65z" fill="#e2418f"/><g fill="#fefefe"><path d="m288.62 118.78c0 35.35-28.63 63.99-63.99 63.99-35.33 0-63.99-28.63-63.99-63.99 0-35.34 28.66-63.99 63.99-63.99 35.35 0 63.99 28.65 63.99 63.99z"/><path d="m224.64 204.66c-65.56 0-118.71 53.16-118.71 118.72 0 17.21 13.94 31.15 31.15 31.15h175.12c17.21 0 31.16-13.94 31.16-31.15 0-65.56-53.16-118.72-118.73-118.72z"/></g></g></svg>